<svg xmlns="http://www.w3.org/2000/svg"  viewBox="0 0 48 48" width="48px" height="48px"><linearGradient id="SNASnMitCxQrIYk4GDibta" x1="18.208" x2="34.159" y1="2.413" y2="46.236" gradientUnits="userSpaceOnUse"><stop offset="0" stop-color="#f09701"/><stop offset="1" stop-color="#e36001"/></linearGradient><path fill="url(#SNASnMitCxQrIYk4GDibta)" d="M7.192,7.176l2.627,29.77c0.109,1.237,0.97,2.28,2.164,2.621l10.643,3.041	c0.898,0.257,1.849,0.257,2.747,0l10.643-3.041c1.194-0.341,2.055-1.383,2.164-2.621l2.627-29.77C40.911,6.006,39.99,5,38.816,5	H9.184C8.01,5,7.089,6.006,7.192,7.176z"/><path fill="#f09601" d="M24,8v31.9l9.876-2.822c0.797-0.228,1.371-0.924,1.443-1.749l2.286-26.242	C37.656,8.502,37.196,8,36.609,8H24z"/><path fill="#fff" d="M24,25v-4h8.6l-0.7,11.5L24,35.1v-4.2l4.1-1.4l0.3-4.5L24,25z M32.9,17l0.3-4H24v4H32.9z"/><path fill="#d6e0e9" d="M24,30.9v4.2l-7.9-2.6L15.7,27h4l0.2,2.5L24,30.9z M19.1,17H24v-4h-9.1l0.7,12H24v-4h-4.6L19.1,17z"/><path d="M33.2,13l-0.3,4H24h-4.9l0.3,4H24h8.6l-0.7,11.5L24,35.1l-7.9-2.6L15.7,27h4l0.2,2.5l4.1,1.4l4.1-1.4l0.3-4.5H24h-8.4 l-0.7-12H24H33.2 M34.278,12H33.2H24h-9.1h-1.06l0.062,1.058l0.7,12L14.657,26h-0.032l0.078,1.073l0.4,5.5l0.049,0.668 l0.636,0.209l7.9,2.6L24,36.153l0.313-0.103l7.9-2.6l0.644-0.212l0.041-0.677l0.7-11.5L33.663,20H32.6H24h-3.672l-0.15-2H24h8.9 h0.928l0.069-0.925l0.3-4L34.278,12L34.278,12z M20.623,26H24h3.331l-0.185,2.769L24,29.843l-3.156-1.077l-0.148-1.846L20.623,26 L20.623,26z" opacity=".05"/><path d="M33.2,13l-0.3,4H24h-4.9l0.3,4H24h8.6l-0.7,11.5L24,35.1l-7.9-2.6L15.7,27h4l0.2,2.5l4.1,1.4l4.1-1.4l0.3-4.5H24h-8.4 l-0.7-12H24H33.2 M33.739,12.5H33.2H24h-9.1h-0.53l0.031,0.529l0.7,12l0.027,0.471H15.6H24h3.866l-0.242,3.634L24,30.372 l-3.628-1.239l-0.174-2.173l-0.037-0.46H19.7h-4h-0.538l0.039,0.536l0.4,5.5l0.024,0.334l0.318,0.105l7.9,2.6L24,35.626 l0.156-0.051l7.9-2.6l0.322-0.106l0.021-0.339l0.7-11.5l0.032-0.53H32.6H24h-4.136l-0.225-3H24h8.9h0.464l0.035-0.463l0.3-4 L33.739,12.5L33.739,12.5z" opacity=".07"/></svg>