<svg xmlns="http://www.w3.org/2000/svg"  viewBox="0 0 80 80" width="40px" height="40px"><path fill="#839cb2" d="M12,75.5c-4.136,0-7.5-3.364-7.5-7.5V14c0-4.136,3.364-7.5,7.5-7.5h54c4.136,0,7.5,3.364,7.5,7.5v54 c0,4.136-3.364,7.5-7.5,7.5H12z"/><path fill="#66798f" d="M66,7c3.86,0,7,3.14,7,7v54c0,3.86-3.14,7-7,7H12c-3.86,0-7-3.14-7-7V14c0-3.86,3.14-7,7-7H66 M66,6 H12c-4.418,0-8,3.582-8,8v54c0,4.418,3.582,8,8,8h54c4.418,0,8-3.582,8-8V14C74,9.582,70.418,6,66,6L66,6z"/><path fill="#455260" d="M69.197,6.669L50.969,26.554l-9.261-9.262l-0.655-0.655l-0.703,0.603l-7,6l-0.845,0.724l0.811,0.763 l17,16l0.706,0.665l0.686-0.686L74,18.414V14C74,10.719,72.023,7.903,69.197,6.669z"/><path fill="#fff" d="M25.272 62.38c0-.958-.348-1.708-1.044-2.244-.696-.538-1.92-1.092-3.67-1.666-1.75-.576-3.182-1.128-4.294-1.666-3.614-1.734-5.422-4.118-5.422-7.15 0-1.51.45-2.84 1.352-3.996s2.174-2.054 3.822-2.694c1.648-.642 3.5-.964 5.558-.964 2.004 0 3.804.35 5.394 1.048 1.592.698 2.826 1.694 3.708 2.984C31.558 47.324 32 48.342 32 50h-6.708c0-1.11-.348-1.512-1.044-2.124s-1.638-.916-2.826-.916c-1.2 0-2.148.258-2.846.776-.696.52-1.044 1.176-1.044 1.974 0 .7.384 1.334 1.15 1.898.766.568 2.114 1.156 4.044 1.762 1.928.604 3.514 1.258 4.752 1.956C30.494 57.024 32 59.364 32 62.346c0 2.38-.92 4.254-2.758 5.614C27.398 69.32 24.876 70 21.67 70c-2.26 0-4.308-.398-6.142-1.188-1.832-.792-3.212-1.878-4.138-3.258S10 61.796 10 60h6.744c0 1.46.388 3.33 1.158 4.02.772.694 2.03 1.04 3.766 1.04 1.11 0 1.99-.232 2.636-.702C24.95 63.89 25.272 63.228 25.272 62.38zM42.798 70c-2.622 0-4.747-.794-6.366-2.383C34.812 66.029 34 63.965 34 61.419v-.45c0-1.777.322-3.341.971-4.7.647-1.361 1.593-2.41 2.836-3.154C39.045 52.373 40.521 52 42.228 52c2.402 0 4.297.758 5.687 2.27C49.305 55.784 50 57.891 50 60.599V62H39c.19.972.733 2.404 1.375 2.958C41.015 65.516 41.98 66 43 66c1.682 0 3.16-.77 4.109-1.971l2.434 2.921c-.665.932-1.604 1.672-2.82 2.221C45.508 69.725 44.199 70 42.798 70zM42 56c-1.557 0-3 1.042-3 3h6l0 0c.021-.866-.406-1.64-.858-2.115C43.691 56.41 42.843 56 42 56z"/><g><path fill="#99c99e" d="M34 24L41 18 51 28 73 4 78 13 51 40z"/></g></svg>