<?xml version="1.0" encoding="utf-8"?>
<!-- Generator: Adobe Illustrator 24.3.0, SVG Export Plug-In . SVG Version: 6.00 Build 0)  -->
<svg version="1.0" id="katman_1" xmlns="http://www.w3.org/2000/svg" xmlns:xlink="http://www.w3.org/1999/xlink" x="0px" y="0px"
	 viewBox="0 0 841.89 595.28" style="enable-background:new 0 0 841.89 595.28;" xml:space="preserve">
<style type="text/css">
	.st0{fill:#1F1F1F;}
	.st1{fill:url(#SVGID_1_);}
	.st2{fill:url(#SVGID_2_);}
	.st3{fill:#5BB888;}
</style>
<g>
	<path class="st0" d="M402.22,347.34v-27.52c2.77,3.82,8.54,6.94,16.4,6.94c16.05,0,26.79-12.72,26.79-29.94
		c0-16.88-9.58-29.59-26.21-29.59c-8.54,0-14.9,3.82-17.44,8.21v-6.94h-14.89v78.84H402.22z M261.58,309.54
		c0.69,6.47,6.58,17.57,23.67,17.57c14.9,0,22.05-9.48,22.05-18.73c0-8.32-5.66-15.14-16.86-17.46l-8.08-1.73
		c-3.12-0.58-5.19-2.31-5.19-5.09c0-3.24,3.23-5.66,7.27-5.66c6.46,0,8.89,4.28,9.35,7.63l12.82-2.89
		c-0.69-6.13-6.12-16.42-22.28-16.42c-12.24,0-21.25,8.44-21.25,18.61c0,7.98,4.96,14.57,15.93,16.99l7.51,1.73
		c4.39,0.93,6.12,3.01,6.12,5.55c0,3.01-2.43,5.66-7.51,5.66c-6.7,0-10.05-4.16-10.39-8.67
		C274.75,306.65,261.58,309.54,261.58,309.54z M647.9,309.54c0.69,6.47,6.58,17.57,23.67,17.57c14.9,0,22.05-9.48,22.05-18.73
		c0-8.32-5.66-15.14-16.86-17.46l-8.08-1.73c-3.12-0.58-5.19-2.31-5.19-5.09c0-3.24,3.23-5.66,7.27-5.66c6.47,0,8.89,4.28,9.35,7.63
		l12.82-2.89c-0.69-6.13-6.12-16.42-22.29-16.42c-12.24,0-21.24,8.44-21.24,18.61c0,7.98,4.96,14.57,15.93,16.99l7.51,1.73
		c4.39,0.93,6.12,3.01,6.12,5.55c0,3.01-2.42,5.66-7.51,5.66c-6.7,0-10.04-4.16-10.39-8.67C661.06,306.65,647.9,309.54,647.9,309.54
		z M743.85,305.26c-1.85,5.09-5.77,8.67-12.93,8.67c-7.62,0-13.97-5.43-14.32-12.95h40.64c0-0.23,0.23-2.54,0.23-4.74
		c0-18.27-10.51-29.48-28.06-29.48c-14.55,0-27.94,11.79-27.94,29.94c0,19.19,13.74,30.4,29.33,30.4c13.97,0,22.98-8.21,25.86-18.03
		C756.66,309.08,743.85,305.26,743.85,305.26z M454.1,309.88c0,8.9,7.39,17.11,19.51,17.11c8.43,0,13.85-3.93,16.74-8.44
		c0,2.2,0.23,5.32,0.58,6.82h14.09c-0.35-1.96-0.69-6.01-0.69-9.02v-27.98c0-11.44-6.7-21.62-24.71-21.62
		c-15.24,0-23.44,9.83-24.36,18.73l13.63,2.89c0.46-4.97,4.16-9.25,10.85-9.25c6.47,0,9.58,3.35,9.58,7.4
		c0,1.96-1.04,3.58-4.27,4.05l-13.97,2.08C461.6,294.05,454.1,299.71,454.1,309.88L454.1,309.88z M587.04,309.88
		c0,8.9,7.39,17.11,19.51,17.11c8.43,0,13.86-3.93,16.74-8.44c0,2.2,0.23,5.32,0.58,6.82h14.09c-0.35-1.96-0.69-6.01-0.69-9.02
		v-27.98c0-11.44-6.7-21.62-24.71-21.62c-15.24,0-23.44,9.83-24.36,18.73l13.62,2.89c0.46-4.97,4.16-9.25,10.85-9.25
		c6.47,0,9.58,3.35,9.58,7.4c0,1.96-1.04,3.58-4.27,4.05l-13.97,2.08C594.54,294.05,587.04,299.71,587.04,309.88L587.04,309.88z
		 M356.38,325.38h14.66c-0.38-3.42-0.57-6.85-0.58-10.29V268.5h-15.36v33.06c0,6.59-3.93,11.21-10.74,11.21
		c-7.16,0-10.39-5.08-10.39-11.44V268.5h-15.36v35.95c0,12.37,7.85,22.42,21.59,22.42c6,0,12.58-2.31,15.7-7.63
		C355.92,321.56,356.15,324.22,356.38,325.38z M534.7,325.38v-6.94c3,4.86,9.01,8.32,16.86,8.32c16.17,0,26.79-12.83,26.79-30.06
		c0-16.88-9.58-29.71-26.21-29.71c-8.43,0-14.66,3.7-17.2,7.75v-33.06H519.8v83.7C519.8,325.38,534.7,325.38,534.7,325.38z
		 M476.84,315.55c-4.96,0-7.39-3.24-7.39-6.59c0-4.39,3.12-6.59,7.04-7.17l12.82-1.97v2.54
		C489.31,312.43,483.31,315.55,476.84,315.55z M609.79,315.55c-4.96,0-7.39-3.24-7.39-6.59c0-4.39,3.12-6.59,7.05-7.17l12.82-1.97
		v2.54C622.26,312.43,616.25,315.55,609.79,315.55z M430.27,296.94c0,10.18-6.23,16.07-14.08,16.07s-14.2-6.01-14.2-16.07
		s6.35-15.95,14.2-15.95S430.27,286.88,430.27,296.94z M562.99,296.82c0,10.41-6.23,16.19-14.09,16.19c-7.74,0-14.2-5.9-14.2-16.19
		c0-10.4,6.46-16.07,14.2-16.07C556.75,280.75,562.99,286.42,562.99,296.82z M716.94,290.46c0.35-5.2,4.74-11.21,12.7-11.21
		c8.77,0,12.47,5.55,12.7,11.21H716.94L716.94,290.46z"/>
	
		<linearGradient id="SVGID_1_" gradientUnits="userSpaceOnUse" x1="12.7247" y1="584.6487" x2="15.408" y2="584.6487" gradientTransform="matrix(17.3104 7.2599 7.2599 -17.3104 -4319.9902 10334.0615)">
		<stop  offset="0" style="stop-color:#239361"/>
		<stop  offset="1" style="stop-color:#5BB888"/>
	</linearGradient>
	<path class="st1" d="M160.23,359.84c-3.3,4.16-10.01,1.88-10.08-3.43l-1.16-77.73h52.26c9.47,0,14.74,10.93,8.86,18.35
		L160.23,359.84z"/>
	
		<linearGradient id="SVGID_2_" gradientUnits="userSpaceOnUse" x1="17.4433" y1="596.043" x2="20.1267" y2="596.043" gradientTransform="matrix(7.8944 14.8609 14.8609 -7.8944 -8848.4521 4703.9956)">
		<stop  offset="0" style="stop-color:#010202;stop-opacity:0.2"/>
		<stop  offset="1" style="stop-color:#010202;stop-opacity:0"/>
	</linearGradient>
	<path class="st2" d="M160.23,359.84c-3.3,4.16-10.01,1.88-10.08-3.43l-1.16-77.73h52.26c9.47,0,14.74,10.93,8.86,18.35
		L160.23,359.84z"/>
	<path class="st3" d="M138.98,234.77c3.31-4.16,10.01-1.88,10.09,3.43l0.51,77.73H97.97c-9.47,0-14.75-10.93-8.86-18.35
		L138.98,234.77z"/>
</g>
</svg>
